<svg width="24" height="24"  viewBox="0 0 16 16" fill="none" xmlns="http://www.w3.org/2000/svg">
<path d="M7.99995 10.8867C6.40661 10.8867 5.11328 9.59333 5.11328 8C5.11328 6.40667 6.40661 5.11333 7.99995 5.11333C9.59328 5.11333 10.8866 6.40667 10.8866 8C10.8866 9.59333 9.59328 10.8867 7.99995 10.8867ZM7.99995 6.11333C6.95995 6.11333 6.11328 6.96 6.11328 8C6.11328 9.04 6.95995 9.88667 7.99995 9.88667C9.03995 9.88667 9.88661 9.04 9.88661 8C9.88661 6.96 9.03995 6.11333 7.99995 6.11333Z" fill="#101828"/>
<path d="M7.99973 14.0133C5.49306 14.0133 3.12639 12.5467 1.49973 10C0.79306 8.9 0.79306 7.10666 1.49973 6C3.13306 3.45333 5.49973 1.98666 7.99973 1.98666C10.4997 1.98666 12.8664 3.45333 14.4931 6C15.1997 7.1 15.1997 8.89333 14.4931 10C12.8664 12.5467 10.4997 14.0133 7.99973 14.0133ZM7.99973 2.98666C5.84639 2.98666 3.78639 4.28 2.34639 6.54C1.84639 7.32 1.84639 8.68 2.34639 9.46C3.78639 11.72 5.84639 13.0133 7.99973 13.0133C10.1531 13.0133 12.2131 11.72 13.6531 9.46C14.1531 8.68 14.1531 7.32 13.6531 6.54C12.2131 4.28 10.1531 2.98666 7.99973 2.98666Z" fill="#101828"/>
</svg>
