<svg width="52" height="52" viewBox="0 0 52 52" fill="none" xmlns="http://www.w3.org/2000/svg">
<circle cx="26" cy="26" r="26" fill="#253BFF"/>
<g clip-path="url(#clip0_129_240)">
<path d="M37.4375 25.4375H27.358L34.4853 18.3102C34.5375 18.258 34.579 18.196 34.6073 18.1277C34.6355 18.0595 34.6501 17.9863 34.6501 17.9124C34.6501 17.8386 34.6355 17.7654 34.6073 17.6972C34.579 17.6289 34.5375 17.5669 34.4853 17.5147C34.4331 17.4625 34.3711 17.421 34.3028 17.3927C34.2346 17.3645 34.1614 17.3499 34.0876 17.3499C34.0137 17.3499 33.9405 17.3645 33.8723 17.3927C33.804 17.421 33.742 17.4625 33.6898 17.5147L26.5625 24.642V14.5625C26.5625 14.4133 26.5032 14.2702 26.3977 14.1648C26.2923 14.0593 26.1492 14 26 14C25.8508 14 25.7077 14.0593 25.6023 14.1648C25.4968 14.2702 25.4375 14.4133 25.4375 14.5625V24.642L18.3102 17.5147C18.2047 17.4092 18.0616 17.3499 17.9124 17.3499C17.7633 17.3499 17.6202 17.4092 17.5147 17.5147C17.4092 17.6202 17.3499 17.7633 17.3499 17.9124C17.3499 18.0616 17.4092 18.2047 17.5147 18.3102L24.642 25.4375H14.5625C14.4133 25.4375 14.2702 25.4968 14.1648 25.6023C14.0593 25.7077 14 25.8508 14 26C14 26.1492 14.0593 26.2923 14.1648 26.3977C14.2702 26.5032 14.4133 26.5625 14.5625 26.5625H24.642L17.5147 33.6898C17.4625 33.742 17.421 33.804 17.3927 33.8723C17.3645 33.9405 17.3499 34.0137 17.3499 34.0876C17.3499 34.1614 17.3645 34.2346 17.3927 34.3028C17.421 34.3711 17.4625 34.4331 17.5147 34.4853C17.5669 34.5375 17.6289 34.579 17.6972 34.6073C17.7654 34.6355 17.8386 34.6501 17.9124 34.6501C17.9863 34.6501 18.0595 34.6355 18.1277 34.6073C18.196 34.579 18.258 34.5375 18.3102 34.4853L25.4375 27.358V37.4375C25.4375 37.5867 25.4968 37.7298 25.6023 37.8352C25.7077 37.9407 25.8508 38 26 38C26.1492 38 26.2923 37.9407 26.3977 37.8352C26.5032 37.7298 26.5625 37.5867 26.5625 37.4375V27.358L33.6898 34.4853C33.742 34.5375 33.804 34.579 33.8723 34.6073C33.9405 34.6355 34.0137 34.6501 34.0876 34.6501C34.1614 34.6501 34.2346 34.6355 34.3028 34.6073C34.3711 34.579 34.4331 34.5375 34.4853 34.4853C34.5375 34.4331 34.579 34.3711 34.6073 34.3028C34.6355 34.2346 34.6501 34.1614 34.6501 34.0876C34.6501 34.0137 34.6355 33.9405 34.6073 33.8723C34.579 33.804 34.5375 33.742 34.4853 33.6898L27.358 26.5625H37.4375C37.5867 26.5625 37.7298 26.5032 37.8352 26.3977C37.9407 26.2923 38 26.1492 38 26C38 25.8508 37.9407 25.7077 37.8352 25.6023C37.7298 25.4968 37.5867 25.4375 37.4375 25.4375Z" fill="white"/>
</g>
<defs>
<clipPath id="clip0_129_240">
<rect width="24" height="24" fill="white" transform="translate(14 14)"/>
</clipPath>
</defs>
</svg>
